<svg aria-hidden="true" style="position: absolute; width: 0; height: 0; overflow: hidden;" version="1.1" xmlns="http://www.w3.org/2000/svg" xmlns:xlink="http://www.w3.org/1999/xlink">
<defs>
<symbol id="cross" viewBox="0 0 20 20">
<path d="M10 8.586l-7.071-7.071-1.414 1.414 7.071 7.071-7.071 7.071 1.414 1.414 7.071-7.071 7.071 7.071 1.414-1.414-7.071-7.071 7.071-7.071-1.414-1.414-7.071 7.071z"></path>
</symbol>
<symbol id="basket" viewBox="0 0 24 24">
<path d="M20.756 5.345c-0.191-0.219-0.466-0.345-0.756-0.345h-13.819l-0.195-1.164c-0.080-0.482-0.497-0.836-0.986-0.836h-2.25c-0.553 0-1 0.447-1 1s0.447 1 1 1h1.403l1.86 11.164c0.008 0.045 0.031 0.082 0.045 0.124 0.016 0.053 0.029 0.103 0.054 0.151 0.032 0.066 0.075 0.122 0.12 0.179 0.031 0.039 0.059 0.078 0.095 0.112 0.058 0.054 0.125 0.092 0.193 0.13 0.038 0.021 0.071 0.049 0.112 0.065 0.116 0.047 0.238 0.075 0.367 0.075 0.001 0 11.001 0 11.001 0 0.553 0 1-0.447 1-1s-0.447-1-1-1h-10.153l-0.166-1h11.319c0.498 0 0.92-0.366 0.99-0.858l1-7c0.041-0.288-0.045-0.579-0.234-0.797zM18.847 7l-0.285 2h-3.562v-2h3.847zM14 7v2h-3v-2h3zM14 10v2h-3v-2h3zM10 7v2h-3c-0.053 0-0.101 0.015-0.148 0.030l-0.338-2.030h3.486zM7.014 10h2.986v2h-2.653l-0.333-2zM15 12v-2h3.418l-0.285 2h-3.133z"></path>
<path d="M10 19.5c0 0.828-0.672 1.5-1.5 1.5s-1.5-0.672-1.5-1.5c0-0.828 0.672-1.5 1.5-1.5s1.5 0.672 1.5 1.5z"></path>
<path d="M19 19.5c0 0.828-0.672 1.5-1.5 1.5s-1.5-0.672-1.5-1.5c0-0.828 0.672-1.5 1.5-1.5s1.5 0.672 1.5 1.5z"></path>
</symbol>
<symbol id="user" viewBox="0 0 28 28">
<path d="M14 0c7.734 0 14 6.266 14 14 0 7.688-6.234 14-14 14-7.75 0-14-6.297-14-14 0-7.734 6.266-14 14-14zM23.672 21.109c1.453-2 2.328-4.453 2.328-7.109 0-6.609-5.391-12-12-12s-12 5.391-12 12c0 2.656 0.875 5.109 2.328 7.109 0.562-2.797 1.922-5.109 4.781-5.109 1.266 1.234 2.984 2 4.891 2s3.625-0.766 4.891-2c2.859 0 4.219 2.312 4.781 5.109zM20 11c0-3.313-2.688-6-6-6s-6 2.688-6 6 2.688 6 6 6 6-2.688 6-6z"></path>
</symbol>
<symbol id="errow-up" viewBox="0 0 32 32">
<path d="M0 16c0 8.837 7.163 16 16 16s16-7.163 16-16-7.163-16-16-16-16 7.163-16 16zM29 16c0 7.18-5.82 13-13 13s-13-5.82-13-13 5.82-13 13-13 13 5.82 13 13z"></path>
<path d="M22.086 20.914l2.829-2.829-8.914-8.914-8.914 8.914 2.828 2.828 6.086-6.086z"></path>
</symbol>
<symbol id="errow-down" viewBox="0 0 32 32">
<path d="M32 16c0-8.837-7.163-16-16-16s-16 7.163-16 16 7.163 16 16 16 16-7.163 16-16zM3 16c0-7.18 5.82-13 13-13s13 5.82 13 13-5.82 13-13 13-13-5.82-13-13z"></path>
<path d="M9.914 11.086l-2.829 2.829 8.914 8.914 8.914-8.914-2.828-2.828-6.086 6.086z"></path>
</symbol>
<symbol id="arrow-left" viewBox="0 0 20 20">
<path d="M3.828 9l6.071-6.071-1.414-1.414-8.485 8.485 8.485 8.485 1.414-1.414-6.071-6.071h16.172v-2h-16.172z"></path>
</symbol>
<symbol id="buy" viewBox="0 0 24 24">
<path d="M18 6h-2.016q0-1.125-0.539-2.016t-1.43-1.43-2.016-0.539-2.016 0.539-1.43 1.43-0.539 2.016h-2.016q-0.844 0-1.43 0.586t-0.586 1.43v12q0 0.797 0.586 1.383t1.43 0.586h12q0.844 0 1.43-0.586t0.586-1.383v-12q0-0.844-0.586-1.43t-1.43-0.586zM9.984 9.984q0 0.422-0.281 0.727t-0.703 0.305-0.703-0.305-0.281-0.727v-1.969h1.969v1.969zM12 3.984q0.844 0 1.43 0.586t0.586 1.43h-4.031q0-0.844 0.586-1.43t1.43-0.586zM15.984 9.984q0 0.422-0.281 0.727t-0.703 0.305-0.703-0.305-0.281-0.727v-1.969h1.969v1.969z"></path>
</symbol>
<symbol id="remove-product" viewBox="0 0 24 24">
<path d="M6.984 18q0.797 0 1.406 0.609t0.609 1.406-0.609 1.383-1.406 0.586-1.383-0.586-0.586-1.383 0.586-1.406 1.383-0.609zM15.563 12.984l-9-9h13.453q0.422 0 0.703 0.305t0.281 0.727q0 0.047-0.141 0.469l-3.563 6.469q-0.563 1.031-1.734 1.031zM7.406 15h5.063l-2.016-2.016h-2.344l-0.891 1.641-0.047 0.141q0 0.234 0.234 0.234zM22.734 22.734l-1.266 1.266-2.859-2.859q-0.609 0.844-1.594 0.844-0.797 0-1.406-0.586t-0.609-1.383q0-1.031 0.844-1.641l-1.406-1.359h-7.453q-0.797 0-1.383-0.609t-0.586-1.406q0-0.469 0.234-0.938l1.359-2.484-2.203-4.641-4.406-4.406 1.266-1.266z"></path>
</symbol>
<symbol id="add-product" viewBox="0 0 24 24">
<path d="M7.172 14.766q0 0.234 0.234 0.234h11.578v2.016h-12q-0.797 0-1.383-0.609t-0.586-1.406q0-0.469 0.234-0.938l1.359-2.484-3.609-7.594h-2.016v-1.969h3.281q0.938 1.969 1.875 3.984 0.234 0.422 1.078 2.227t1.313 2.789h7.031q3.516-6.375 3.844-7.031l1.734 0.984-3.844 6.984q-0.563 1.031-1.734 1.031h-7.453l-0.891 1.641zM17.016 18q0.797 0 1.383 0.609t0.586 1.406-0.586 1.383-1.383 0.586-1.406-0.586-0.609-1.383 0.609-1.406 1.406-0.609zM6.984 18q0.797 0 1.406 0.609t0.609 1.406-0.609 1.383-1.406 0.586-1.383-0.586-0.586-1.383 0.586-1.406 1.383-0.609zM11.016 9v-3h-3v-2.016h3v-3h1.969v3h3v2.016h-3v3h-1.969z"></path>
</symbol>
</defs>
</svg>
